<svg data-v-423bf9ae="" xmlns="http://www.w3.org/2000/svg" viewBox="0 0 1049.118401350358 317" class="iconAboveSlogan"><!----><!----><!----><g data-v-423bf9ae="" id="2c4112d5-406e-4e3c-832b-1d813958b1ef" fill="white" transform="matrix(5.037783622741699,0,0,5.037783622741699,-4.886672019958496,86.97984313964844)"><path d="M4.72 13.02L4.72 13.02L3.04 13.02Q2.07 13.02 1.52 12.47Q0.97 11.93 0.97 10.95L0.97 10.95L0.97 6.09Q0.97 5.11 1.52 4.56Q2.07 4.02 3.04 4.02L3.04 4.02L4.72 4.02Q5.68 4.02 6.24 4.56Q6.79 5.11 6.79 6.09L6.79 6.09L6.79 6.78Q6.79 6.97 6.59 6.97L6.59 6.97L5.96 6.97Q5.77 6.97 5.77 6.78L5.77 6.78L5.77 6.13Q5.77 4.91 4.59 4.91L4.59 4.91L3.15 4.91Q1.99 4.91 1.99 6.13L1.99 6.13L1.99 10.91Q1.99 12.12 3.15 12.12L3.15 12.12L4.59 12.12Q5.77 12.12 5.77 10.91L5.77 10.91L5.77 10.26Q5.77 10.07 5.96 10.07L5.96 10.07L6.59 10.07Q6.79 10.07 6.79 10.26L6.79 10.26L6.79 10.95Q6.79 11.93 6.24 12.47Q5.68 13.02 4.72 13.02ZM11.68 13.02L11.68 13.02L10.47 13.02Q9.51 13.02 8.95 12.47Q8.40 11.93 8.40 10.95L8.40 10.95L8.40 7.95Q8.40 6.97 8.95 6.43Q9.51 5.88 10.47 5.88L10.47 5.88L11.68 5.88Q12.64 5.88 13.20 6.43Q13.75 6.97 13.75 7.95L13.75 7.95L13.75 10.95Q13.75 11.93 13.20 12.47Q12.64 13.02 11.68 13.02ZM10.58 12.12L10.58 12.12L11.56 12.12Q12.74 12.12 12.74 10.92L12.74 10.92L12.74 7.98Q12.74 6.78 11.56 6.78L11.56 6.78L10.58 6.78Q9.41 6.78 9.41 7.98L9.41 7.98L9.41 10.92Q9.41 12.12 10.58 12.12ZM16.37 13.02L16.37 13.02L15.74 13.02Q15.54 13.02 15.54 12.82L15.54 12.82L15.54 6.08Q15.54 5.88 15.74 5.88L15.74 5.88L16.37 5.88Q16.56 5.88 16.56 6.08L16.56 6.08L16.56 6.62L16.62 6.62Q17.01 5.88 18.10 5.88L18.10 5.88L18.62 5.88Q19.85 5.88 20.33 6.83L20.33 6.83Q20.55 6.37 21.04 6.12Q21.52 5.88 22.05 5.88L22.05 5.88L22.54 5.88Q23.49 5.88 24.02 6.43Q24.56 6.97 24.56 7.95L24.56 7.95L24.56 12.82Q24.56 13.02 24.36 13.02L24.36 13.02L23.73 13.02Q23.53 13.02 23.53 12.82L23.53 12.82L23.53 7.99Q23.53 6.78 22.36 6.78L22.36 6.78L21.90 6.78Q21.27 6.78 20.92 7.13Q20.58 7.49 20.58 8.11L20.58 8.11L20.58 12.82Q20.58 13.02 20.38 13.02L20.38 13.02L19.75 13.02Q19.56 13.02 19.56 12.82L19.56 12.82L19.56 7.99Q19.56 6.78 18.38 6.78L18.38 6.78L17.86 6.78Q17.23 6.78 16.90 7.11Q16.56 7.45 16.56 8.06L16.56 8.06L16.56 12.82Q16.56 13.02 16.37 13.02ZM27.24 15.06L27.24 15.06L26.61 15.06Q26.42 15.06 26.42 14.87L26.42 14.87L26.42 6.08Q26.42 5.88 26.61 5.88L26.61 5.88L27.24 5.88Q27.44 5.88 27.44 6.08L27.44 6.08L27.44 6.62L27.50 6.62Q27.85 5.88 28.92 5.88L28.92 5.88L29.76 5.88Q30.72 5.88 31.24 6.43Q31.77 6.97 31.77 7.95L31.77 7.95L31.77 10.95Q31.77 11.93 31.24 12.47Q30.72 13.02 29.76 13.02L29.76 13.02L28.92 13.02Q27.85 13.02 27.50 12.28L27.50 12.28L27.44 12.28L27.44 14.87Q27.44 15.06 27.24 15.06ZM28.74 12.12L28.74 12.12L29.57 12.12Q30.76 12.12 30.76 10.91L30.76 10.91L30.76 7.99Q30.76 6.78 29.57 6.78L29.57 6.78L28.74 6.78Q28.11 6.78 27.78 7.11Q27.44 7.45 27.44 8.06L27.44 8.06L27.44 10.84Q27.44 11.45 27.78 11.79Q28.11 12.12 28.74 12.12ZM36.29 13.02L36.29 13.02L35.50 13.02Q34.55 13.02 34.02 12.47Q33.49 11.93 33.49 10.95L33.49 10.95L33.49 6.08Q33.49 5.88 33.68 5.88L33.68 5.88L34.31 5.88Q34.51 5.88 34.51 6.08L34.51 6.08L34.51 10.91Q34.51 12.12 35.67 12.12L35.67 12.12L36.47 12.12Q37.10 12.12 37.44 11.79Q37.77 11.45 37.77 10.84L37.77 10.84L37.77 6.08Q37.77 5.88 37.97 5.88L37.97 5.88L38.60 5.88Q38.79 5.88 38.79 6.08L38.79 6.08L38.79 12.82Q38.79 13.02 38.60 13.02L38.60 13.02L37.97 13.02Q37.77 13.02 37.77 12.82L37.77 12.82L37.77 12.28L37.72 12.28Q37.37 13.02 36.29 13.02ZM40.99 6.78L40.99 6.78L40.22 6.78Q40.03 6.78 40.03 6.59L40.03 6.59L40.03 6.08Q40.03 5.88 40.22 5.88L40.22 5.88L40.99 5.88Q41.13 5.88 41.13 5.75L41.13 5.75L41.13 4.55Q41.13 4.35 41.33 4.35L41.33 4.35L41.96 4.35Q42.14 4.35 42.14 4.55L42.14 4.55L42.14 5.75Q42.14 5.88 42.29 5.88L42.29 5.88L43.78 5.88Q43.99 5.88 43.99 6.08L43.99 6.08L43.99 6.59Q43.99 6.78 43.78 6.78L43.78 6.78L42.29 6.78Q42.14 6.78 42.14 6.90L42.14 6.90L42.14 10.93Q42.14 12.12 43.37 12.12L43.37 12.12L43.92 12.12Q44.13 12.12 44.13 12.32L44.13 12.32L44.13 12.84Q44.13 13.02 43.92 13.02L43.92 13.02L43.25 13.02Q42.28 13.02 41.71 12.48Q41.13 11.94 41.13 10.98L41.13 10.98L41.13 6.90Q41.13 6.78 40.99 6.78ZM50.51 13.02L50.51 13.02L47.54 13.02Q46.58 13.02 46.02 12.47Q45.47 11.93 45.47 10.95L45.47 10.95L45.47 7.95Q45.47 6.97 46.02 6.43Q46.58 5.88 47.54 5.88L47.54 5.88L48.72 5.88Q49.69 5.88 50.23 6.43Q50.78 6.97 50.78 7.95L50.78 7.95L50.78 9.73Q50.78 9.94 50.58 9.94L50.58 9.94L46.62 9.94Q46.48 9.94 46.48 10.07L46.48 10.07L46.48 10.92Q46.48 12.14 47.66 12.14L47.66 12.14L50.51 12.14Q50.71 12.14 50.71 12.33L50.71 12.33L50.71 12.84Q50.71 13.02 50.51 13.02ZM46.62 9.20L46.62 9.20L49.64 9.20Q49.78 9.20 49.78 9.06L49.78 9.06L49.78 7.98Q49.78 6.78 48.61 6.78L48.61 6.78L47.66 6.78Q46.48 6.78 46.48 7.98L46.48 7.98L46.48 9.06Q46.48 9.20 46.62 9.20ZM53.33 13.02L53.33 13.02L52.70 13.02Q52.50 13.02 52.50 12.82L52.50 12.82L52.50 6.08Q52.50 5.88 52.70 5.88L52.70 5.88L53.33 5.88Q53.52 5.88 53.52 6.08L53.52 6.08L53.52 6.64L53.58 6.64Q53.72 6.33 54.11 6.10Q54.50 5.88 55.03 5.88L55.03 5.88L55.58 5.88Q55.76 5.88 55.76 6.08L55.76 6.08L55.76 6.59Q55.76 6.69 55.72 6.74Q55.68 6.79 55.58 6.78L55.58 6.78L54.82 6.78Q54.19 6.78 53.86 7.15Q53.52 7.53 53.52 8.19L53.52 8.19L53.52 12.82Q53.52 13.02 53.33 13.02ZM60.62 10.95L60.62 10.95L60.62 10.50Q60.62 10.30 60.82 10.30L60.82 10.30L61.45 10.30Q61.64 10.30 61.64 10.50L61.64 10.50L61.64 10.86Q61.64 12.12 62.89 12.12L62.89 12.12L64.12 12.12Q65.37 12.12 65.37 10.84L65.37 10.84L65.37 10.36Q65.37 9.35 63.70 9.04L63.70 9.04Q63.00 8.92 62.30 8.75Q61.60 8.58 61.11 8.10Q60.62 7.62 60.62 6.78L60.62 6.78L60.62 6.09Q60.62 5.12 61.17 4.57Q61.73 4.02 62.69 4.02L62.69 4.02L64.25 4.02Q65.20 4.02 65.76 4.57Q66.32 5.12 66.32 6.09L66.32 6.09L66.32 6.44Q66.32 6.65 66.14 6.65L66.14 6.65L65.49 6.65Q65.31 6.65 65.31 6.44L65.31 6.44L65.31 6.19Q65.31 4.91 64.06 4.91L64.06 4.91L62.87 4.91Q61.63 4.91 61.63 6.24L61.63 6.24L61.63 6.80Q61.63 7.52 62.57 7.78L62.57 7.78Q62.99 7.90 63.49 7.99Q63.99 8.08 64.50 8.22Q65.02 8.37 65.44 8.59Q65.86 8.81 66.11 9.25Q66.37 9.69 66.37 10.32L66.37 10.32L66.37 10.95Q66.37 11.91 65.81 12.47Q65.25 13.02 64.30 13.02L64.30 13.02L62.69 13.02Q61.74 13.02 61.18 12.47Q60.62 11.91 60.62 10.95ZM72.51 12.32L72.51 12.32L72.51 12.84Q72.51 13.02 72.31 13.02L72.31 13.02L70.28 13.02Q69.31 13.02 68.76 12.47Q68.21 11.93 68.21 10.95L68.21 10.95L68.21 7.95Q68.21 6.97 68.76 6.43Q69.31 5.88 70.28 5.88L70.28 5.88L72.31 5.88Q72.51 5.88 72.51 6.08L72.51 6.08L72.51 6.59Q72.51 6.78 72.31 6.78L72.31 6.78L70.39 6.78Q69.23 6.78 69.23 7.99L69.23 7.99L69.23 10.91Q69.23 12.12 70.39 12.12L70.39 12.12L72.31 12.12Q72.51 12.12 72.51 12.32ZM74.00 4.70L74.00 4.70L74.00 3.39Q74.00 3.19 74.19 3.19L74.19 3.19L74.83 3.19Q75.03 3.19 75.03 3.39L75.03 3.39L75.03 4.70Q75.03 4.90 74.83 4.90L74.83 4.90L74.19 4.90Q74.00 4.90 74.00 4.70ZM74.00 12.82L74.00 12.82L74.00 6.08Q74.00 5.88 74.19 5.88L74.19 5.88L74.83 5.88Q75.03 5.88 75.03 6.08L75.03 6.08L75.03 12.82Q75.03 13.02 74.83 13.02L74.83 13.02L74.20 13.02Q74.00 13.02 74.00 12.82ZM81.93 13.02L81.93 13.02L78.96 13.02Q77.99 13.02 77.44 12.47Q76.89 11.93 76.89 10.95L76.89 10.95L76.89 7.95Q76.89 6.97 77.44 6.43Q77.99 5.88 78.96 5.88L78.96 5.88L80.14 5.88Q81.10 5.88 81.65 6.43Q82.19 6.97 82.19 7.95L82.19 7.95L82.19 9.73Q82.19 9.94 82.00 9.94L82.00 9.94L78.04 9.94Q77.90 9.94 77.90 10.07L77.90 10.07L77.90 10.92Q77.90 12.14 79.07 12.14L79.07 12.14L81.93 12.14Q82.12 12.14 82.12 12.33L82.12 12.33L82.12 12.84Q82.12 13.02 81.93 13.02ZM78.04 9.20L78.04 9.20L81.06 9.20Q81.20 9.20 81.20 9.06L81.20 9.06L81.20 7.98Q81.20 6.78 80.02 6.78L80.02 6.78L79.07 6.78Q77.90 6.78 77.90 7.98L77.90 7.98L77.90 9.06Q77.90 9.20 78.04 9.20ZM84.74 13.02L84.74 13.02L84.11 13.02Q83.92 13.02 83.92 12.82L83.92 12.82L83.92 6.08Q83.92 5.88 84.11 5.88L84.11 5.88L84.74 5.88Q84.94 5.88 84.94 6.08L84.94 6.08L84.94 6.62L84.99 6.62Q85.34 5.88 86.42 5.88L86.42 5.88L87.21 5.88Q88.16 5.88 88.69 6.43Q89.22 6.97 89.22 7.95L89.22 7.95L89.22 12.82Q89.22 13.02 89.03 13.02L89.03 13.02L88.40 13.02Q88.20 13.02 88.20 12.82L88.20 12.82L88.20 7.99Q88.20 6.78 87.02 6.78L87.02 6.78L86.24 6.78Q85.61 6.78 85.27 7.11Q84.94 7.45 84.94 8.06L84.94 8.06L84.94 12.82Q84.94 13.02 84.74 13.02ZM95.24 12.32L95.24 12.32L95.24 12.84Q95.24 13.02 95.05 13.02L95.05 13.02L93.02 13.02Q92.05 13.02 91.50 12.47Q90.94 11.93 90.94 10.95L90.94 10.95L90.94 7.95Q90.94 6.97 91.50 6.43Q92.05 5.88 93.02 5.88L93.02 5.88L95.05 5.88Q95.24 5.88 95.24 6.08L95.24 6.08L95.24 6.59Q95.24 6.78 95.05 6.78L95.05 6.78L93.13 6.78Q91.97 6.78 91.97 7.99L91.97 7.99L91.97 10.91Q91.97 12.12 93.13 12.12L93.13 12.12L95.05 12.12Q95.24 12.12 95.24 12.32ZM101.57 13.02L101.57 13.02L98.60 13.02Q97.64 13.02 97.08 12.47Q96.53 11.93 96.53 10.95L96.53 10.95L96.53 7.95Q96.53 6.97 97.08 6.43Q97.64 5.88 98.60 5.88L98.60 5.88L99.78 5.88Q100.74 5.88 101.29 6.43Q101.84 6.97 101.84 7.95L101.84 7.95L101.84 9.73Q101.84 9.94 101.64 9.94L101.64 9.94L97.68 9.94Q97.54 9.94 97.54 10.07L97.54 10.07L97.54 10.92Q97.54 12.14 98.71 12.14L98.71 12.14L101.57 12.14Q101.77 12.14 101.77 12.33L101.77 12.33L101.77 12.84Q101.77 13.02 101.57 13.02ZM97.68 9.20L97.68 9.20L100.70 9.20Q100.84 9.20 100.84 9.06L100.84 9.06L100.84 7.98Q100.84 6.78 99.67 6.78L99.67 6.78L98.71 6.78Q97.54 6.78 97.54 7.98L97.54 7.98L97.54 9.06Q97.54 9.20 97.68 9.20ZM109.77 13.02L109.77 13.02L109.05 13.02Q108.08 13.02 107.53 12.47Q106.97 11.93 106.97 10.95L106.97 10.95L106.97 7.95Q106.97 6.97 107.53 6.43Q108.08 5.88 109.05 5.88L109.05 5.88L112.08 5.88Q112.28 5.88 112.28 6.08L112.28 6.08L112.28 12.82Q112.28 13.02 112.08 13.02L112.08 13.02L111.45 13.02Q111.26 13.02 111.26 12.82L111.26 12.82L111.26 12.28L111.20 12.28Q110.85 13.02 109.77 13.02ZM111.26 10.84L111.26 10.84L111.26 6.90Q111.26 6.78 111.12 6.78L111.12 6.78L109.16 6.78Q108.00 6.78 108.00 7.99L108.00 7.99L108.00 10.91Q108.00 12.12 109.16 12.12L109.16 12.12L109.96 12.12Q110.59 12.12 110.92 11.79Q111.26 11.45 111.26 10.84ZM115.04 13.02L115.04 13.02L114.41 13.02Q114.21 13.02 114.21 12.82L114.21 12.82L114.21 6.08Q114.21 5.88 114.41 5.88L114.41 5.88L115.04 5.88Q115.23 5.88 115.23 6.08L115.23 6.08L115.23 6.62L115.29 6.62Q115.64 5.88 116.72 5.88L116.72 5.88L117.50 5.88Q118.45 5.88 118.99 6.43Q119.52 6.97 119.52 7.95L119.52 7.95L119.52 12.82Q119.52 13.02 119.32 13.02L119.32 13.02L118.69 13.02Q118.50 13.02 118.50 12.82L118.50 12.82L118.50 7.99Q118.50 6.78 117.32 6.78L117.32 6.78L116.54 6.78Q115.91 6.78 115.57 7.11Q115.23 7.45 115.23 8.06L115.23 8.06L115.23 12.82Q115.23 13.02 115.04 13.02ZM124.08 13.02L124.08 13.02L123.26 13.02Q122.30 13.02 121.77 12.47Q121.24 11.93 121.24 10.95L121.24 10.95L121.24 7.95Q121.24 6.97 121.77 6.43Q122.30 5.88 123.26 5.88L123.26 5.88L124.08 5.88Q125.17 5.88 125.52 6.62L125.52 6.62L125.58 6.62L125.58 3.37Q125.58 3.18 125.76 3.18L125.76 3.18L126.41 3.18Q126.59 3.18 126.59 3.37L126.59 3.37L126.59 12.82Q126.59 13.02 126.41 13.02L126.41 13.02L125.76 13.02Q125.58 13.02 125.58 12.82L125.58 12.82L125.58 12.28L125.52 12.28Q125.17 13.02 124.08 13.02ZM125.58 10.84L125.58 10.84L125.58 8.06Q125.58 7.45 125.24 7.11Q124.91 6.78 124.28 6.78L124.28 6.78L123.42 6.78Q122.26 6.78 122.26 7.99L122.26 7.99L122.26 10.91Q122.26 12.12 123.42 12.12L123.42 12.12L124.28 12.12Q124.91 12.12 125.24 11.79Q125.58 11.45 125.58 10.84ZM132.12 10.95L132.12 10.95L132.12 10.50Q132.12 10.30 132.31 10.30L132.31 10.30L132.94 10.30Q133.14 10.30 133.14 10.50L133.14 10.50L133.14 10.86Q133.14 12.12 134.39 12.12L134.39 12.12L135.62 12.12Q136.86 12.12 136.86 10.84L136.86 10.84L136.86 10.36Q136.86 9.35 135.20 9.04L135.20 9.04Q134.50 8.92 133.80 8.75Q133.10 8.58 132.61 8.10Q132.12 7.62 132.12 6.78L132.12 6.78L132.12 6.09Q132.12 5.12 132.67 4.57Q133.22 4.02 134.19 4.02L134.19 4.02L135.74 4.02Q136.70 4.02 137.26 4.57Q137.82 5.12 137.82 6.09L137.82 6.09L137.82 6.44Q137.82 6.65 137.63 6.65L137.63 6.65L136.99 6.65Q136.81 6.65 136.81 6.44L136.81 6.44L136.81 6.19Q136.81 4.91 135.56 4.91L135.56 4.91L134.37 4.91Q133.13 4.91 133.13 6.24L133.13 6.24L133.13 6.80Q133.13 7.52 134.06 7.78L134.06 7.78Q134.48 7.90 134.99 7.99Q135.49 8.08 136.00 8.22Q136.51 8.37 136.93 8.59Q137.35 8.81 137.61 9.25Q137.87 9.69 137.87 10.32L137.87 10.32L137.87 10.95Q137.87 11.91 137.31 12.47Q136.75 13.02 135.80 13.02L135.80 13.02L134.19 13.02Q133.24 13.02 132.68 12.47Q132.12 11.91 132.12 10.95ZM144.00 12.32L144.00 12.32L144.00 12.84Q144.00 13.02 143.81 13.02L143.81 13.02L141.78 13.02Q140.81 13.02 140.26 12.47Q139.71 11.93 139.71 10.95L139.71 10.95L139.71 7.95Q139.71 6.97 140.26 6.43Q140.81 5.88 141.78 5.88L141.78 5.88L143.81 5.88Q144.00 5.88 144.00 6.08L144.00 6.08L144.00 6.59Q144.00 6.78 143.81 6.78L143.81 6.78L141.89 6.78Q140.73 6.78 140.73 7.99L140.73 7.99L140.73 10.91Q140.73 12.12 141.89 12.12L141.89 12.12L143.81 12.12Q144.00 12.12 144.00 12.32ZM146.26 13.02L146.26 13.02L145.63 13.02Q145.43 13.02 145.43 12.82L145.43 12.82L145.43 6.08Q145.43 5.88 145.63 5.88L145.63 5.88L146.26 5.88Q146.45 5.88 146.45 6.08L146.45 6.08L146.45 6.64L146.51 6.64Q146.65 6.33 147.04 6.10Q147.43 5.88 147.97 5.88L147.97 5.88L148.51 5.88Q148.69 5.88 148.69 6.08L148.69 6.08L148.69 6.59Q148.69 6.69 148.65 6.74Q148.61 6.79 148.51 6.78L148.51 6.78L147.76 6.78Q147.13 6.78 146.79 7.15Q146.45 7.53 146.45 8.19L146.45 8.19L146.45 12.82Q146.45 13.02 146.26 13.02ZM150.02 4.70L150.02 4.70L150.02 3.39Q150.02 3.19 150.21 3.19L150.21 3.19L150.85 3.19Q151.05 3.19 151.05 3.39L151.05 3.39L151.05 4.70Q151.05 4.90 150.85 4.90L150.85 4.90L150.21 4.90Q150.02 4.90 150.02 4.70ZM150.02 12.82L150.02 12.82L150.02 6.08Q150.02 5.88 150.21 5.88L150.21 5.88L150.85 5.88Q151.05 5.88 151.05 6.08L151.05 6.08L151.05 12.82Q151.05 13.02 150.85 13.02L150.85 13.02L150.22 13.02Q150.02 13.02 150.02 12.82ZM153.87 15.06L153.87 15.06L153.24 15.06Q153.05 15.06 153.05 14.87L153.05 14.87L153.05 6.08Q153.05 5.88 153.24 5.88L153.24 5.88L153.87 5.88Q154.07 5.88 154.07 6.08L154.07 6.08L154.07 6.62L154.13 6.62Q154.48 5.88 155.55 5.88L155.55 5.88L156.39 5.88Q157.35 5.88 157.87 6.43Q158.40 6.97 158.40 7.95L158.40 7.95L158.40 10.95Q158.40 11.93 157.87 12.47Q157.35 13.02 156.39 13.02L156.39 13.02L155.55 13.02Q154.48 13.02 154.13 12.28L154.13 12.28L154.07 12.28L154.07 14.87Q154.07 15.06 153.87 15.06ZM155.37 12.12L155.37 12.12L156.20 12.12Q157.39 12.12 157.39 10.91L157.39 10.91L157.39 7.99Q157.39 6.78 156.20 6.78L156.20 6.78L155.37 6.78Q154.74 6.78 154.41 7.11Q154.07 7.45 154.07 8.06L154.07 8.06L154.07 10.84Q154.07 11.45 154.41 11.79Q154.74 12.12 155.37 12.12ZM160.45 6.78L160.45 6.78L159.68 6.78Q159.49 6.78 159.49 6.59L159.49 6.59L159.49 6.08Q159.49 5.88 159.68 5.88L159.68 5.88L160.45 5.88Q160.59 5.88 160.59 5.75L160.59 5.75L160.59 4.55Q160.59 4.35 160.79 4.35L160.79 4.35L161.42 4.35Q161.60 4.35 161.60 4.55L161.60 4.55L161.60 5.75Q161.60 5.88 161.76 5.88L161.76 5.88L163.24 5.88Q163.45 5.88 163.45 6.08L163.45 6.08L163.45 6.59Q163.45 6.78 163.24 6.78L163.24 6.78L161.76 6.78Q161.60 6.78 161.60 6.90L161.60 6.90L161.60 10.93Q161.60 12.12 162.83 12.12L162.83 12.12L163.38 12.12Q163.59 12.12 163.59 12.32L163.59 12.32L163.59 12.84Q163.59 13.02 163.38 13.02L163.38 13.02L162.71 13.02Q161.74 13.02 161.17 12.48Q160.59 11.94 160.59 10.98L160.59 10.98L160.59 6.90Q160.59 6.78 160.45 6.78ZM165.14 4.70L165.14 4.70L165.14 3.39Q165.14 3.19 165.33 3.19L165.33 3.19L165.97 3.19Q166.17 3.19 166.17 3.39L166.17 3.39L166.17 4.70Q166.17 4.90 165.97 4.90L165.97 4.90L165.33 4.90Q165.14 4.90 165.14 4.70ZM165.14 12.82L165.14 12.82L165.14 6.08Q165.14 5.88 165.33 5.88L165.33 5.88L165.97 5.88Q166.17 5.88 166.17 6.08L166.17 6.08L166.17 12.82Q166.17 13.02 165.97 13.02L165.97 13.02L165.34 13.02Q165.14 13.02 165.14 12.82ZM168.99 13.02L168.99 13.02L168.36 13.02Q168.17 13.02 168.17 12.82L168.17 12.82L168.17 6.08Q168.17 5.88 168.36 5.88L168.36 5.88L168.99 5.88Q169.19 5.88 169.19 6.08L169.19 6.08L169.19 6.62L169.25 6.62Q169.60 5.88 170.67 5.88L170.67 5.88L171.46 5.88Q172.41 5.88 172.94 6.43Q173.47 6.97 173.47 7.95L173.47 7.95L173.47 12.82Q173.47 13.02 173.28 13.02L173.28 13.02L172.65 13.02Q172.45 13.02 172.45 12.82L172.45 12.82L172.45 7.99Q172.45 6.78 171.28 6.78L171.28 6.78L170.49 6.78Q169.86 6.78 169.53 7.11Q169.19 7.45 169.19 8.06L169.19 8.06L169.19 12.82Q169.19 13.02 168.99 13.02ZM178.04 12.64L178.04 12.64L177.25 12.64Q176.30 12.64 175.77 12.10Q175.24 11.55 175.24 10.57L175.24 10.57L175.24 7.95Q175.24 6.97 175.79 6.43Q176.34 5.88 177.31 5.88L177.31 5.88L180.35 5.88Q180.54 5.88 180.54 6.08L180.54 6.08L180.54 13.02Q180.54 13.99 179.99 14.54Q179.44 15.09 178.47 15.09L178.47 15.09L175.90 15.09Q175.69 15.09 175.69 14.90L175.69 14.90L175.69 14.38Q175.69 14.18 175.90 14.18L175.90 14.18L178.35 14.18Q179.52 14.18 179.52 12.98L179.52 12.98L179.52 11.90L179.47 11.90Q179.10 12.64 178.04 12.64ZM179.52 10.46L179.52 10.46L179.52 6.90Q179.52 6.78 179.38 6.78L179.38 6.78L177.44 6.78Q176.26 6.78 176.26 7.99L176.26 7.99L176.26 10.53Q176.26 11.75 177.44 11.75L177.44 11.75L178.22 11.75Q178.85 11.75 179.19 11.41Q179.52 11.07 179.52 10.46ZM189.78 13.02L189.78 13.02L188.10 13.02Q187.14 13.02 186.59 12.47Q186.03 11.93 186.03 10.95L186.03 10.95L186.03 6.09Q186.03 5.11 186.59 4.56Q187.14 4.02 188.10 4.02L188.10 4.02L189.78 4.02Q190.75 4.02 191.30 4.56Q191.86 5.11 191.86 6.09L191.86 6.09L191.86 6.78Q191.86 6.97 191.66 6.97L191.66 6.97L191.03 6.97Q190.83 6.97 190.83 6.78L190.83 6.78L190.83 6.13Q190.83 4.91 189.66 4.91L189.66 4.91L188.22 4.91Q187.05 4.91 187.05 6.13L187.05 6.13L187.05 10.91Q187.05 12.12 188.22 12.12L188.22 12.12L189.66 12.12Q190.83 12.12 190.83 10.91L190.83 10.91L190.83 10.26Q190.83 10.07 191.03 10.07L191.03 10.07L191.66 10.07Q191.86 10.07 191.86 10.26L191.86 10.26L191.86 10.95Q191.86 11.93 191.30 12.47Q190.75 13.02 189.78 13.02ZM194.50 13.02L194.50 13.02L193.87 13.02Q193.68 13.02 193.68 12.82L193.68 12.82L193.68 3.37Q193.68 3.18 193.87 3.18L193.87 3.18L194.50 3.18Q194.70 3.18 194.70 3.37L194.70 3.37L194.70 12.82Q194.70 13.02 194.50 13.02ZM199.43 13.02L199.43 13.02L198.65 13.02Q197.69 13.02 197.16 12.47Q196.63 11.93 196.63 10.95L196.63 10.95L196.63 6.08Q196.63 5.88 196.83 5.88L196.83 5.88L197.46 5.88Q197.65 5.88 197.65 6.08L197.65 6.08L197.65 10.91Q197.65 12.12 198.81 12.12L198.81 12.12L199.61 12.12Q200.24 12.12 200.58 11.79Q200.91 11.45 200.91 10.84L200.91 10.84L200.91 6.08Q200.91 5.88 201.11 5.88L201.11 5.88L201.74 5.88Q201.94 5.88 201.94 6.08L201.94 6.08L201.94 12.82Q201.94 13.02 201.74 13.02L201.74 13.02L201.11 13.02Q200.91 13.02 200.91 12.82L200.91 12.82L200.91 12.28L200.86 12.28Q200.51 13.02 199.43 13.02ZM205.03 12.12L205.03 12.12L207.02 12.12Q208.21 12.12 208.21 10.91L208.21 10.91L208.21 7.91Q208.21 6.69 207.02 6.69L207.02 6.69L206.19 6.69Q205.56 6.69 205.23 7.03Q204.89 7.36 204.89 7.97L204.89 7.97L204.89 12.00Q204.89 12.12 205.03 12.12ZM203.87 12.82L203.87 12.82L203.87 3.37Q203.87 3.18 204.06 3.18L204.06 3.18L204.69 3.18Q204.89 3.18 204.89 3.37L204.89 3.37L204.89 6.54L204.95 6.54Q205.30 5.80 206.37 5.80L206.37 5.80L207.16 5.80Q208.11 5.80 208.66 6.34Q209.22 6.89 209.22 7.85L209.22 7.85L209.22 10.95Q209.22 11.93 208.66 12.47Q208.11 13.02 207.16 13.02L207.16 13.02L204.06 13.02Q203.87 13.02 203.87 12.82Z"></path></g><!----><g data-v-423bf9ae="" id="b666c01e-ab62-4219-8c94-f158c0f694bd" transform="matrix(1.7543858289718628,0,0,1.7543858289718628,437.28070068359375,-42.407012939453125)" stroke="none" fill="white"><path d="M30.3 42.8c1.4-1.4 2.2-3.3 2.2-5.3s-.8-3.9-2.2-5.3C28.9 30.8 27 30 25 30s-3.9.8-5.3 2.2L7.2 44.7C5.8 46.1 5 48 5 50s.8 3.9 2.2 5.3l12.5 12.5C21.1 69.2 23 70 25 70s3.9-.8 5.3-2.2c1.4-1.4 2.2-3.3 2.2-5.3s-.8-3.9-2.2-5.3L25 51.9 23.1 50l1.9-1.9 5.3-5.3zm-12.5 9l9 9c.5.5.7 1.1.7 1.8s-.3 1.3-.7 1.8c-.9.9-2.6.9-3.5 0L10.7 51.8c-.4-.5-.7-1.1-.7-1.8s.3-1.3.7-1.8l12.5-12.5c.5-.5 1.1-.7 1.8-.7s1.3.3 1.8.7c.5.5.7 1.1.7 1.8s-.3 1.3-.7 1.8l-9 9c-1 .9-1 2.5 0 3.5zM80.3 32.2C78.9 30.8 77 30 75 30s-3.9.8-5.3 2.2c-1.4 1.4-2.2 3.3-2.2 5.3s.8 3.9 2.2 5.3l5.3 5.3 1.9 1.9-1.9 1.9-5.3 5.3c-1.4 1.4-2.2 3.3-2.2 5.3s.8 3.9 2.2 5.3C71.1 69.2 73 70 75 70s3.9-.8 5.3-2.2l12.5-12.5C94.2 53.9 95 52 95 50s-.8-3.9-2.2-5.3L80.3 32.2zm9 19.6L76.8 64.3c-.9.9-2.6.9-3.5 0-.5-.5-.7-1.1-.7-1.8s.3-1.3.7-1.8l9-9c1-1 1-2.6 0-3.5l-9-9c-.5-.5-.7-1.1-.7-1.8s.3-1.3.7-1.8c.5-.5 1.1-.7 1.8-.7s1.3.3 1.8.7l12.5 12.5c.5.5.7 1.1.7 1.8s-.4 1.4-.8 1.9zM43.2 75.4c.6.2 1.3.3 1.9.3 3.4 0 6.4-2.3 7.2-5.6L62 33.9c.5-1.9.3-4-.7-5.7-1-1.7-2.6-3-4.6-3.5-.6-.2-1.3-.3-1.9-.3-3.4 0-6.4 2.3-7.2 5.6l-9.7 36.2c-.5 1.9-.3 4 .7 5.7 1.1 1.7 2.7 2.9 4.6 3.5zm-.5-7.9l9.7-36.2c.3-1.1 1.3-1.9 2.4-1.9.2 0 .4 0 .6.1.6.2 1.2.6 1.5 1.2.3.6.4 1.3.2 1.9l-9.7 36.2c-.3 1.3-1.7 2.1-3.1 1.8-.6-.2-1.2-.6-1.5-1.2-.2-.6-.2-1.3-.1-1.9z"></path></g><!----><g data-v-423bf9ae="" id="1bebd901-fb4b-4603-aa70-316f951a60bc" fill="white" transform="matrix(14.360992431640625,0,0,14.360992431640625,123.69764709472656,100.97881317138672)"><path d="M0.59 7.91C0.59 11.31 2.95 12.87 5.54 12.87C7.32 12.87 9.10 11.90 9.14 11.59C9.31 10.29 9.37 9.70 9.37 9.66C9.37 9.56 9.32 9.52 9.16 9.51C9.10 9.51 9.04 9.49 9.00 9.49C8.89 9.49 8.83 9.53 8.81 9.70L8.62 11.33C8.61 11.45 7.50 12.24 5.94 12.24C3.81 12.24 2.10 10.29 2.10 7.94C2.10 5.42 3.53 3.54 5.53 3.54C7.38 3.54 8.72 5.01 8.72 5.17C8.72 5.29 8.67 6.40 8.67 6.45C8.67 6.59 8.71 6.64 8.97 6.64C9.17 6.64 9.24 6.62 9.24 6.44C9.24 5.73 9.30 3.92 9.30 3.67C9.30 3.47 9.18 3.44 8.97 3.44C8.75 3.44 8.72 3.50 8.72 3.67L8.72 4.05C8.72 4.16 8.68 4.16 8.55 4.06C8.27 3.86 7.29 3.04 5.63 3.04C2.79 3.04 0.59 4.96 0.59 7.91ZM17.96 5.77C17.96 9.07 22.95 8.20 22.95 10.65C22.95 11.59 22.11 12.31 21.13 12.31C20.30 12.31 18.70 11.83 18.68 11.47L18.59 10.15C18.58 9.97 18.51 9.91 18.33 9.91L18.26 9.91C18.05 9.91 18.05 10.00 18.05 10.12C18.05 10.32 18.16 11.66 18.19 12.17C18.20 12.38 19.46 12.85 21 12.85C22.57 12.85 24.18 11.87 24.18 10.11C24.18 6.79 19.21 7.87 19.21 5.32C19.21 4.31 19.99 3.56 21.03 3.56C22.05 3.56 23.14 4.58 23.14 4.89C23.14 5.01 23.10 5.73 23.10 5.78C23.10 5.92 23.14 5.99 23.41 5.99C23.65 5.99 23.66 5.94 23.66 5.75C23.66 5.04 23.74 3.68 23.74 3.53C23.74 3.30 23.70 3.29 23.44 3.29C23.21 3.29 23.20 3.32 23.18 3.53C23.18 3.61 23.17 3.78 23.13 3.78C23.07 3.78 22.99 3.74 22.92 3.68C22.12 3.14 21.50 3.08 21 3.08C19.47 3.08 17.96 4.17 17.96 5.77ZM32.35 5.77C32.35 9.07 37.34 8.20 37.34 10.65C37.34 11.59 36.50 12.31 35.52 12.31C34.69 12.31 33.10 11.83 33.07 11.47L32.98 10.15C32.97 9.97 32.90 9.91 32.72 9.91L32.65 9.91C32.44 9.91 32.44 10.00 32.44 10.12C32.44 10.32 32.55 11.66 32.58 12.17C32.59 12.38 33.85 12.85 35.39 12.85C36.96 12.85 38.57 11.87 38.57 10.11C38.57 6.79 33.60 7.87 33.60 5.32C33.60 4.31 34.38 3.56 35.42 3.56C36.44 3.56 37.53 4.58 37.53 4.89C37.53 5.01 37.49 5.73 37.49 5.78C37.49 5.92 37.53 5.99 37.80 5.99C38.04 5.99 38.05 5.94 38.05 5.75C38.05 5.04 38.14 3.68 38.14 3.53C38.14 3.30 38.09 3.29 37.83 3.29C37.60 3.29 37.59 3.32 37.58 3.53C37.58 3.61 37.56 3.78 37.52 3.78C37.46 3.78 37.38 3.74 37.31 3.68C36.51 3.14 35.90 3.08 35.39 3.08C33.87 3.08 32.35 4.17 32.35 5.77ZM46.61 7.91C46.61 11.31 48.97 12.87 51.56 12.87C53.34 12.87 55.12 11.90 55.16 11.59C55.33 10.29 55.38 9.70 55.38 9.66C55.38 9.56 55.34 9.52 55.17 9.51C55.12 9.51 55.06 9.49 55.02 9.49C54.91 9.49 54.85 9.53 54.82 9.70L54.64 11.33C54.63 11.45 53.52 12.24 51.95 12.24C49.83 12.24 48.12 10.29 48.12 7.94C48.12 5.42 49.55 3.54 51.55 3.54C53.40 3.54 54.74 5.01 54.74 5.17C54.74 5.29 54.68 6.40 54.68 6.45C54.68 6.59 54.73 6.64 54.99 6.64C55.19 6.64 55.26 6.62 55.26 6.44C55.26 5.73 55.31 3.92 55.31 3.67C55.31 3.47 55.20 3.44 54.99 3.44C54.77 3.44 54.74 3.50 54.74 3.67L54.74 4.05C54.74 4.16 54.70 4.16 54.57 4.06C54.29 3.86 53.31 3.04 51.65 3.04C48.80 3.04 46.61 4.96 46.61 7.91Z"></path></g></svg>